<svg xmlns="http://www.w3.org/2000/svg" viewBox="0 0 5121.06 875.09"><defs><style>.cls-1{fill:#44b549;}.cls-2{fill:#303030;}</style></defs><title>new19Asset 331x</title><g id="Layer_2" data-name="Layer 2"><g id="Layer_1-2" data-name="Layer 1"><g id="Layer_1-2-2" data-name="Layer 1-2"><path class="cls-1" d="M3048.81,369.65a67.24,67.24,0,0,0-68.18,64.55v.22c0,.81-.05,1.61-.06,2.42v2.1c0,1.81,0,3.63-.08,5.44a259.62,259.62,0,0,1-2.14,27.44c-.18,1.54-.54,6.23-.54,6.23-.39,2.62-.82,5.23-1.27,7.83s-.93,5.2-1.44,7.8a295.68,295.68,0,0,1-7,29.05c-.4,1.37-.81,2.74-1.23,4.1q-1.65,5.46-3.49,10.88-3,9-6.63,17.86a303.93,303.93,0,0,1-18.89,37.18v.07c-.54.91-1.09,1.82-1.64,2.72l-.61,1c-.37.6-.74,1.2-1.12,1.8l-.71,1.12-1,1.61-.46.7-.3.47c-.35.54-.68,1.08-1,1.56l-.78,1.2c-.34.53-.68,1-1,1.52l-.8,1.19-1.07,1.52-.54.81h0l-.24.35-.71,1-.37.53-.15.23-.64.89-.6.83h0l0,.08-.5.68-.45.62a1.77,1.77,0,0,1-.12.17l-.17.24-1,1.34-.33.45-.15.2-.45.61c-.49.65-1,1.29-1.46,1.92l-.48.64-.1.14-.33.42c-.53.66-1,1.33-1.54,2l-.74.94c-.42.53-.83,1.07-1.26,1.6-.2.26-.41.54-.62.78l-.21.26-1.18,1.46-.88,1.07-.3.36-.88,1.07-.67.8-.23.27-1.17,1.38-.23.27-.68.8-.9,1c-.11.11-.21.23-.3.34l-.23.26-.68.77-.94,1.07-.31.36-.88,1-.33.37-1,1.11-.6.66-.21.22c-.17.2-.36.39-.53.59l-1.16,1.23-.34.37-.13.14c-.72.77-1.44,1.54-2.18,2.3l-.67.69-1.55,1.6a2.28,2.28,0,0,1-.22.22l-.65.66-1.37,1.38-.7.7-.25.24-1.31,1.3-1,1-.33.32-1,.94-.75.72-.25.23-.33.31-1,.93-1,.94-1,.93-.34.31-1,.91-.35.31-1.07.95-.72.64-.24.21-1.56,1.38-.81.71c-.74.65-1.5,1.3-2.25,1.94l0,0-.12.1c-.79.68-1.59,1.35-2.39,2l-.62.54-.21.17-1.61,1.32-1,.8-1.47,1.18-.27.21-.77.62-1.07.85-.36.28-1.07.83-.36.28-1.07.82-1.07.83-1.08.82-.35.27-1.08.81-.36.27-1.11.82-.8.57-.26.2c-.54.38-1.07.75-1.57,1.13l-1,.7-1.8,1.26-.77.54-2.58,1.76-.54.38-.53.34-1.54,1-1,.62-1.67,1.07-1.07.69-1.17.75-.4.26-1.13.71-.38.24-1.15.71-.87.54-.29.18-.38.23-1.15.7-.87.53-.3.18-1.54.92-1.15.67-.41.24-1.2.7-.83.47-.28.16-1.73,1-.25.14-.75.42-1.61.88-.53.29-.16.08-.46.26-2.07,1.1-.68.37-.8.43-2,1-.26.14-.8.41-1.29.65-.43.22-.29.15-.88.44-1.22.6-.42.21-1.21.58-1.6.79-1.24.58-1.6.76-1.23.56-1.65.75-1.21.54-1.71.75-1.15.51-.47.2-1.41.61-.75.32-.24.1-.69.29-2.08.87-.13,0-2.88,1.16-.74.29-.24.1-1.92.75-1.17.45-.44.16-1.32.51-.93.34-.31.11-.42.16-1.28.47-1,.34-.32.11-1.69.6-.32.12-1,.33c-.53.2-1.12.39-1.68.58l-1,.32-.32.11-1.74.57-1.24.41-1.83.58-1.15.36-2.1.65-.22.06-.67.21-2.25.66-.74.22-.63.18-.6.17-1.79.5-.82.23-.27.07-.48.14-1.44.39-.94.24-.31.08-.44.12-1.34.34-1.3.33-1.75.44-1,.24-.33.08-1.75.41-1.32.3-.44.11-1.32.29-1.31.29-1.35.29-.46.1-1.26.26-.48.1-1.46.29L2738,733l-1.8.35-.6.11-.69.13-.76.14-2.32.41-1.15.2-1.52.26-.42.07-.3.05-.9.14-1.43.22-.48.08-.32.05-1,.14-1.36.2-.46.07-1.34.19-1.79.24-.33,0-1,.13-1.34.17-.45.05-1.34.16-1.82.21-.33,0-1,.11-1.41.15-.46,0-1.27.13-.53.05-1.55.13-.81.08h-.27l-.75.06-2.24.18h-.25l-3,.2-.8,0h-.27l-2.08.12h-.32l-1,0-1.42.07h-.47l-1.34,0H2691c-.46,0-.91,0-1.37.05l-1.38,0-1.35,0H2675l-1.66,0h-1c-.79,0-1.6,0-2.37-.08h-1.5l-2.49-.1-.87-.05h-.29l-2-.11-1.3-.08-1.89-.12-1.36-.1-1.83-.14-1.38-.11-.46,0-1.37-.12-1.38-.13-1.38-.14-.46,0-1.36-.14-1.88-.21-1.31-.15-2-.24-1.18-.15-2.51-.33h-.17l-.53-.06-2.39-.35-.79-.11-.94-.15-2.25-.35-1.23-.21-1.95-.37-1.32-.23-1.89-.3-1.37-.26-1.83-.35-1.38-.27-1.82-.37-1.38-.29-1.84-.39-1.34-.29-1.89-.46-.32-.07-.95-.22-2.14-.51-.79-.19L2609,730l-3.12-.78h-.05c-.58-.14-1.16-.3-1.73-.45q-6-1.58-12-3.41c-2.59-.79-5.16-1.6-7.72-2.46l-.13,0h0q-8-2.69-15.92-5.89l-5.26-2.15a298.92,298.92,0,0,1-58-32.5q-10.93-7.83-21-16.49-4-3.48-7.92-7.06t-7.64-7.32c-1.25-1.23-2.48-2.48-3.71-3.74A299,299,0,0,1,2444.09,624l-.26-.32-.78-1-.33-.43-.11-.14q-1.86-2.4-3.69-4.85c-1.21-1.6-2.41-3.26-3.58-4.91A298.31,298.31,0,0,1,2416,581.42q-1.17-2.14-2.29-4.29t-2.23-4.34q-1.06-2.19-2.14-4.38-3.18-6.61-6-13.39-1.49-3.49-2.86-7c-.18-.47-.37-.94-.54-1.41-.54-1.43-1.08-2.84-1.6-4.24q-2.57-6.9-4.77-13.92-1.67-5.25-3.12-10.55a304.46,304.46,0,0,1-10.71-72.57c0-1,0-1.94,0-2.92s0-1.94,0-2.9v-6.16c0-1.48.06-2.95.1-4.42,0-.66.05-1.32.07-2,0-1.19.1-2.39.16-3.58,0-1,.1-2,.16-3h0c.12-2,.26-4,.41-6a300.65,300.65,0,0,1,182.54-253.95q5.13-2.13,10.31-4.14c1.49-.56,3-1.11,4.47-1.65l.28-.1a301.55,301.55,0,0,1,57.3-14.42c3.25-.53,6.57-1,9.93-1.32h0l1.07-.12c1-.11,2-.2,3-.29q2.85-.26,5.72-.43l2.87-.16c3.6-.25,7.2-.44,10.82-.58s7.23-.19,10.87-.19a302.37,302.37,0,0,1,62,6.38h.18l1.61.3.91.18,1.26.26.28.06.28.06.37.09h.12l4.45,1.07,1.21.3,3.72.92c2.58.64,4.7,1.17,4.82,1.22l.37.07.29.06c.57.12,1.5.33,2.71.64l.95.25,1.67.48.72.21c14.29,4.39,47,18.5,54.46,57.31,0,.26.09.53.14.78.26,1.47.49,3,.68,4.5.12,1,.24,2,.32,3s.15,1.83.2,2.77v.18c0,.48,0,1,.05,1.44v1.73q0,3.12-.26,6.18c-3.13,37-33.79,66.08-71.16,66.08-11.27,0-38.05-9-40.08-9.45a157.57,157.57,0,0,0-32.85-3.32c-86.53.29-156.77,71-156.78,157.33h0v1.73c0,.69,0,1.38,0,2.08v.47c0,1.21.08,2.42.14,3.63v.37c.07,1.29.15,2.58.25,3.86v.11c.1,1.3.21,2.59.35,3.88.06.65.14,1.29.21,1.94s.12,1.07.19,1.64c.13,1,.27,2.07.42,3.11l.05.34a159.13,159.13,0,0,0,157.45,135.82c87.89,0,159.14-71.18,159.14-159,0-1.6,0-3.26-.08-4.88l.08-.77c0-4,.12-8,.34-12,6.2-110.85,97.65-197.69,208.19-197.69,3.62,0,7.28.09,10.88.28l1.38.09c-.48-.86-1-1.7-1.44-2.54l-.05-.1c-.07-.11-.13-.22-.19-.33-.67-1.16-1.34-2.32-2-3.48A426.44,426.44,0,0,0,3026,169.93l-.27-.35-2-2.54q-1.7-2.14-3.43-4.28l-.42-.54A440,440,0,0,0,2920.45,72l-.4-.26q-2.61-1.71-5.23-3.39l-1-.66q-2.45-1.54-4.9-3.06l-1.19-.73q-2.58-1.58-5.17-3.1l-.41-.26-.31-.17a435,435,0,0,0-84.24-38.28h-.07L2810.88,20l-.39-.11c-2.12-.67-4.24-1.31-6.37-1.94l-.61-.18c-2.08-.61-4.16-1.21-6.26-1.79l-.26-.08-1-.28-2.07-.58-1.46-.4-2.14-.53-1.37-.35-2.24-.57-1.24-.31-2.4-.59L2782,12c-.86-.21-1.72-.42-2.58-.61l-.88-.21-2.75-.65-.66-.14-3-.66-.43-.1L2768.36,9l-.19,0a438.31,438.31,0,0,0-66-8.35h-.09l-3.59-.17h-.4l-3.29-.14H2694c-1,0-1.95-.08-2.91-.11l-1.25,0-2.5-.06h-1.88L2683.63,0h-3.75c-1.86,0-3.74,0-5.61,0h-.61a434.22,434.22,0,0,0-154.13,30.28c-1.19.46-2.36.94-3.54,1.42l-1.39.53q-5.55,2.29-11,4.71a436,436,0,0,0-133,91.14h0a436.14,436.14,0,0,0-91.47,133.72l-.22.5-.23.54q-2,4.67-3.95,9.37c-.31.75-.6,1.5-.9,2.25s-.73,1.78-1.07,2.68a434.4,434.4,0,0,0-30.18,148.88v.21c0,1.54-.07,3.08-.09,4.61V432c0,1.44,0,2.89,0,4.34v2.53c0,1.44,0,2.89,0,4.33v1.08c0,1.53.05,3.07.09,4.61v.21a434.17,434.17,0,0,0,30.18,148.88c.35.9.71,1.78,1.07,2.68s.59,1.5.9,2.25q1.91,4.68,3.93,9.31l.25.57.21.48A439.11,439.11,0,0,0,2504.5,838.54l.16.07c.49.22,1,.43,1.5.64,1.75.77,3.51,1.51,5.28,2.25l2.95,1.23c.43.18.86.34,1.29.54l3.68,1.48.62.23a432.67,432.67,0,0,0,125.9,28.84l.79.06,4.28.3,1.65.1,3.42.2,2.37.12,2.64.12,3,.12,1.92,0,3.65.11h1.45l3.64.06h.09c1.67,0,3.34,0,5,0h0c1.88,0,3.75,0,5.63,0h.59a434.67,434.67,0,0,0,154.17-30.29l1.61-.65,3.31-1.33q3.49-1.42,7-2.91A436,436,0,0,0,2989.16,747l.1-.09q2.34-2.34,4.63-4.7l.1-.11,1.25-1.3.15-.15q1.7-1.77,3.38-3.57c.23-.23.46-.47.68-.71l.56-.6c.37-.39.73-.78,1.08-1.18,1-1.07,2-2.14,2.92-3.21l.64-.69.36-.4.71-.8c.31-.35.62-.7.93-1.07l1.19-1.35c.61-.68,1.21-1.35,1.81-2l.74-.83c1.51-1.75,3-3.51,4.51-5.28.28-.34.53-.67.83-1,1.33-1.6,2.64-3.17,3.94-4.77l.63-.76c1.48-1.84,3-3.69,4.41-5.55l.23-.3c.24-.31.47-.61.71-.87a21.42,21.42,0,0,0,1.84-2.31c.7-1.07,1.48-2,2.24-3.06l4.28-5.78q2.14-2.9,4.18-5.85c.17-.24.34-.48.53-.73q2.1-3,4.12-6c1.35-2,2.69-4,4-6.06a1.88,1.88,0,0,0,.12-.18l.24-.36c1.33-2.07,2.66-4.15,4-6.24s2.6-4.18,3.86-6.29l.18-.3h0c1-1.67,2-3.36,3-5.05.37-.64.73-1.29,1.11-1.94l.31-.53q3.36-5.87,6.54-11.83l1.33-2.51c.48-.91,1-1.82,1.42-2.74s1.06-2.07,1.61-3.1l1.16-2.31c.88-1.78,1.76-3.56,2.61-5.32l.64-1.36q1.08-2.21,2.07-4.39c.29-.63.57-1.25.86-1.87.64-1.39,1.26-2.78,1.88-4.18l.74-1.65q2.37-5.35,4.6-10.82c.29-.71.57-1.42.85-2.12.37-.94.75-1.87,1.12-2.82A434.07,434.07,0,0,0,3117.21,449v-.21c0-1.54.07-3.07.09-4.61V438A68.55,68.55,0,0,0,3048.81,369.65Z"/></g><path class="cls-2" d="M0,452.79C0,305,112.46,196.15,264.57,196.15c73.53,0,139.86,24.51,184.55,73.54l-33.88,33.88c-41.09-41.81-91.55-59.84-149.23-59.84-121.83,0-213.38,89.39-213.38,209.06S144.18,661.86,266,661.86c57.68,0,108.14-18,149.23-60.56l33.88,33.88c-44.69,49-111,74.26-185.27,74.26C112.46,709.44,0,600.58,0,452.79Z"/><path class="cls-2" d="M507.51,452.79c0-147.06,112.46-256.64,265.29-256.64,151.39,0,264.57,108.86,264.57,256.64S924.19,709.44,772.8,709.44C620,709.44,507.51,599.86,507.51,452.79Zm476.51,0c0-120.39-90.11-209.06-211.22-209.06-121.83,0-212.67,88.67-212.67,209.06S651,661.86,772.8,661.86C893.91,661.86,984,573.19,984,452.79Z"/><path class="cls-2" d="M1501.62,705.11l-115.35-162.2a359.56,359.56,0,0,1-40.37,2.16H1210.37v160H1157V200.48H1345.9c128.32,0,206.18,64.88,206.18,173,0,79.29-41.81,134.8-115.34,158.59l123.27,173Zm-2.89-331.61c0-80.75-53.34-126.88-154.27-126.88H1210.37v253h134.09C1445.39,499.65,1498.73,452.79,1498.73,373.5Z"/><path class="cls-2" d="M2035.07,659v46.14H1678.23V200.48h346v46.14H1731.58v179.5h261v45.42h-261V659Z"/><path class="cls-2" d="M3324.6,452.79c0-147.78,112.46-256.64,264.57-256.64,73.54,0,139.86,24.51,184.56,73.54l-33.89,33.88c-41.09-41.81-91.55-59.84-149.22-59.84-121.84,0-213.39,89.39-213.39,209.06s91.55,209.07,213.39,209.07c57.67,0,108.13-18,149.22-60.56l33.89,33.88c-44.7,49-111,74.26-185.28,74.26C3437.06,709.44,3324.6,600.58,3324.6,452.79Z"/><path class="cls-2" d="M3832.11,452.79c0-147.06,112.46-256.64,265.29-256.64C4248.79,196.15,4362,305,4362,452.79S4248.79,709.44,4097.4,709.44C3944.57,709.44,3832.11,599.86,3832.11,452.79Zm476.52,0c0-120.39-90.12-209.06-211.23-209.06-121.83,0-212.66,88.67-212.66,209.06s90.83,209.07,212.66,209.07C4218.51,661.86,4308.63,573.19,4308.63,452.79Z"/><path class="cls-2" d="M4481.63,200.48H4535V705.11h-53.35Z"/><path class="cls-2" d="M5121.06,200.48V705.11h-44l-324.4-409.47V705.11h-53.35V200.48h44L5068.43,610V200.48Z"/></g></g></svg>