<?xml version="1.0" encoding="utf-8"?>
<!-- Generator: Adobe Illustrator 22.1.0, SVG Export Plug-In . SVG Version: 6.00 Build 0)  -->
<svg version="1.1" id="Layer_1" xmlns="http://www.w3.org/2000/svg" xmlns:xlink="http://www.w3.org/1999/xlink" x="0px" y="0px"
	 viewBox="0 0 255.8 59.8" style="enable-background:new 0 0 255.8 59.8;" xml:space="preserve">
<style type="text/css">
	.st0{fill:#2F80ED;}
	.st1{fill:#0D2A49;}
</style>
<g>
	<g>
		<g>
			<path class="st0" d="M50.6,12.1H12.1v38.5c0,5.1,4.1,9.2,9.1,9.2V21.2h26.9c1.4,0,2.5,1.1,2.5,2.5v8.2h9.1V21.2
				C59.8,16.2,55.7,12.1,50.6,12.1z"/>
			<path class="st0" d="M50.6,48.2c0,1.4-1.1,2.5-2.5,2.5H29.4v9.1h21.2c5.1,0,9.2-4.1,9.2-9.2V40h-9.1V48.2z"/>
			<path class="st0" d="M42.9,40.6v-9.4c0-1.1-0.9-2.1-2.1-2.1H29.4v13.5h11.4C42,42.7,42.9,41.8,42.9,40.6z"/>
			<path class="st0" d="M47,5.8C47,5.8,47,5.8,47,5.8C45.7,2.4,42.4,0,38.5,0L0,0l0,38.5c0,3.9,2.4,7.2,5.8,8.5c0,0,0,0,0,0V5.8
				L47,5.8z"/>
		</g>
	</g>
	<path class="st1" d="M80.8,48c-1.2-0.8-2.2-1.9-2.9-3.3c-0.7-1.4-1-3.1-1-4.9v-8.3c0-1.9,0.3-3.5,1-4.9c0.7-1.4,1.7-2.5,2.9-3.3
		c1.3-0.8,2.7-1.2,4.4-1.2h4c1.6,0,2.9,0.3,4.2,1c1.2,0.7,2.1,1.6,2.8,2.9c0.7,1.2,1,2.6,1,4.2h-2c0-1.9-0.5-3.4-1.6-4.5
		c-1.1-1.1-2.5-1.7-4.3-1.7h-4c-1.9,0-3.4,0.7-4.5,2.1c-1.2,1.4-1.7,3.2-1.7,5.4v8.3c0,2.3,0.6,4.1,1.7,5.5c1.1,1.4,2.6,2.1,4.4,2.1
		h4.1c1.8,0,3.3-0.6,4.4-1.9c1.1-1.2,1.7-2.9,1.7-5h2c0,1.7-0.3,3.3-1,4.6c-0.7,1.3-1.6,2.3-2.8,3.1c-1.2,0.7-2.6,1.1-4.3,1.1H85
		C83.4,49.1,82,48.7,80.8,48z"/>
	<path class="st1" d="M104.1,48c-1.3-0.8-2.3-1.9-3-3.2c-0.7-1.4-1.1-3-1.1-4.8v-8.6c0-1.8,0.4-3.4,1.1-4.8s1.7-2.5,3-3.2
		c1.3-0.8,2.8-1.2,4.5-1.2h3.9c1.7,0,3.2,0.4,4.5,1.2c1.3,0.8,2.3,1.8,3,3.2s1.1,3,1.1,4.8v8.6c0,1.8-0.4,3.4-1.1,4.8
		c-0.7,1.4-1.7,2.5-3,3.2c-1.3,0.8-2.8,1.2-4.5,1.2h-3.9C106.8,49.1,105.4,48.7,104.1,48z M112.4,47.2c1.9,0,3.5-0.7,4.7-2
		c1.2-1.3,1.8-3.1,1.8-5.3v-8.6c0-2.2-0.6-4-1.8-5.3c-1.2-1.3-2.8-2-4.7-2h-3.9c-2,0-3.5,0.7-4.7,2c-1.2,1.3-1.8,3.1-1.8,5.3v8.6
		c0,2.2,0.6,4,1.8,5.3c1.2,1.3,2.8,2,4.7,2H112.4z"/>
	<path class="st1" d="M123.8,22.4h12.5c1.8,0,3.3,0.5,4.4,1.5c1.1,1,1.7,2.4,1.7,4.1v2.9c0,1.3-0.4,2.5-1.3,3.5
		c-0.9,1-2,1.7-3.4,2.1v0c0.8,0.4,1.4,1,2,1.9c0.6,0.9,1.1,1.9,1.4,3l2.1,7.4H141l-2.1-7.4c-0.4-1.3-1-2.4-1.9-3.2
		c-0.9-0.8-1.9-1.2-3-1.2h-8.2v11.7h-2.1V22.4z M135.3,35.3c1.5,0,2.7-0.4,3.6-1.2c0.9-0.8,1.4-1.8,1.4-3.2v-3c0-1.1-0.4-2-1.1-2.7
		c-0.7-0.7-1.7-1-2.9-1h-10.3v11H135.3z"/>
	<path class="st1" d="M146.3,48.3c-0.3-0.4-0.5-0.8-0.5-1.5V22.4h17v1.8h-15v10.2h13.8v1.8h-13.8V47h15v1.9h-15.1
		C147.1,48.8,146.6,48.6,146.3,48.3z"/>
	<path class="st1" d="M165.8,22.4h13.9c1.5,0,2.9,0.3,4.1,0.9c1.2,0.6,2.1,1.4,2.8,2.5c0.7,1.1,1,2.3,1,3.8v3.5c0,1.5-0.3,2.8-1,3.9
		c-0.7,1.1-1.6,2-2.9,2.6c-1.2,0.6-2.6,0.9-4.2,0.9H171v8.3h-5.2V22.4z M179.3,35.9c0.9,0,1.6-0.3,2.2-0.9c0.6-0.6,0.8-1.3,0.8-2.2
		v-3.1c0-0.9-0.2-1.6-0.7-2.1c-0.5-0.5-1.1-0.8-1.9-0.8H171v9H179.3z"/>
	<path class="st1" d="M212.1,46.8c-1.6-1.5-2.3-3.7-2.3-6.5h5.1c0,1.3,0.3,2.3,1,3.1c0.7,0.7,1.6,1.1,2.8,1.1h4.2
		c1.1,0,2-0.2,2.7-0.7c0.7-0.5,1-1.1,1-1.9v-1.3c0-1.2-0.9-2-2.7-2.3l-6.9-1.2c-2.3-0.4-4-1.1-5.2-2.2c-1.2-1.1-1.8-2.4-1.8-4.1
		v-2.1c0-1.3,0.4-2.5,1.1-3.5c0.7-1,1.7-1.8,3.1-2.4c1.3-0.6,2.9-0.8,4.6-0.8h4.3c1.6,0,3.1,0.3,4.3,1c1.3,0.7,2.2,1.6,2.9,2.9
		c0.7,1.2,1,2.6,1,4.3h-5.1c0-1.1-0.3-1.9-0.9-2.5c-0.6-0.6-1.3-1-2.3-1h-4.3c-1.1,0-1.9,0.2-2.5,0.7c-0.6,0.5-1,1.1-1,1.8v1
		c0,1.3,0.9,2,2.6,2.3l6.9,1.2c2.3,0.4,4,1.1,5.2,2.1c1.2,1,1.8,2.3,1.8,3.9v2.5c0,1.3-0.4,2.5-1.1,3.6c-0.7,1-1.8,1.8-3.1,2.4
		c-1.3,0.6-2.9,0.8-4.6,0.8h-4.3C215.8,49.1,213.7,48.4,212.1,46.8z"/>
	<path class="st1" d="M236.1,46.8c-1.6-1.5-2.3-3.7-2.3-6.5h5.1c0,1.3,0.3,2.3,1,3.1c0.7,0.7,1.6,1.1,2.8,1.1h4.2
		c1.1,0,2-0.2,2.7-0.7c0.7-0.5,1-1.1,1-1.9v-1.3c0-1.2-0.9-2-2.7-2.3l-6.9-1.2c-2.3-0.4-4-1.1-5.2-2.2s-1.8-2.4-1.8-4.1v-2.1
		c0-1.3,0.4-2.5,1.1-3.5c0.7-1,1.7-1.8,3.1-2.4c1.3-0.6,2.9-0.8,4.6-0.8h4.3c1.6,0,3.1,0.3,4.3,1c1.3,0.7,2.2,1.6,2.9,2.9
		c0.7,1.2,1,2.6,1,4.3h-5.1c0-1.1-0.3-1.9-0.9-2.5c-0.6-0.6-1.3-1-2.3-1h-4.3c-1.1,0-1.9,0.2-2.6,0.7c-0.6,0.5-1,1.1-1,1.8v1
		c0,1.3,0.9,2,2.6,2.3l6.9,1.2c2.3,0.4,4,1.1,5.3,2.1c1.2,1,1.8,2.3,1.8,3.9v2.5c0,1.3-0.4,2.5-1.1,3.6c-0.7,1-1.8,1.8-3.1,2.4
		c-1.3,0.6-2.9,0.8-4.6,0.8h-4.3C239.9,49.1,237.7,48.4,236.1,46.8z"/>
	<path class="st1" d="M201,24.6c-0.1-0.3-0.2-0.5-0.3-0.7c-0.6-1-1.6-1.5-2.9-1.6c0,0,0,0,0,0c-1.3,0-2.3,0.5-2.9,1.6
		c-0.1,0.2-0.2,0.4-0.3,0.7L185,48.8h5.4l2.4-6.2h9.8l1.8,4.6l0.6,1.5h0h5.4L201,24.6z M194.1,38.3l3.5-9.5l3.5,9.5H194.1z"/>
</g>
</svg>
